<?xml version="1.0" encoding="UTF-8" ?>
<!DOCTYPE svg PUBLIC "-//W3C//DTD SVG 1.1//EN" "http://www.w3.org/Graphics/SVG/1.1/DTD/svg11.dtd">
<svg width="1920pt" height="1280pt" viewBox="0 0 1920 1280" version="1.1" xmlns="http://www.w3.org/2000/svg">
<path fill="#000000" opacity="1.00" d=" M 732.31 259.28 C 739.20 259.13 746.75 265.05 745.49 272.63 C 750.63 359.27 759.23 445.52 765.77 531.77 C 771.94 560.33 772.00 590.53 784.02 617.72 C 786.00 621.58 788.05 626.80 793.21 626.69 C 794.10 623.42 790.56 614.41 796.90 616.33 C 797.63 620.56 794.88 628.05 801.07 628.95 C 817.66 632.77 833.31 642.84 850.91 639.98 C 931.80 630.65 1012.81 621.84 1093.73 613.16 C 1098.31 613.27 1099.82 620.40 1096.68 622.65 C 1031.26 633.67 965.83 645.09 900.58 657.37 C 898.79 660.37 903.53 660.57 905.22 661.85 C 928.91 674.89 949.38 695.61 958.50 721.46 C 966.05 741.12 962.32 762.46 960.48 782.77 C 1001.66 786.20 1043.10 783.93 1084.04 779.53 C 1249.05 767.04 1412.87 741.27 1577.55 726.23 C 1580.32 738.61 1563.39 734.07 1556.33 736.33 C 1542.22 734.71 1563.94 748.02 1553.97 750.02 C 1470.96 763.44 1387.81 776.58 1304.84 789.88 C 1301.01 797.65 1301.54 809.96 1294.98 816.90 C 1287.39 811.90 1286.95 801.20 1283.78 793.11 C 1245.59 798.99 1207.55 805.93 1169.44 812.30 C 1166.90 819.95 1165.32 828.61 1159.69 834.76 C 1151.45 831.83 1154.57 813.40 1143.26 816.05 C 1147.45 831.62 1153.58 849.64 1144.99 865.01 C 1134.12 883.74 1110.58 884.57 1091.43 886.48 C 1077.72 885.82 1054.45 888.90 1048.36 872.80 C 1037.04 863.48 1039.61 847.12 1036.98 834.19 C 1016.68 833.98 996.57 837.81 976.34 839.10 C 975.28 842.98 983.90 843.78 981.13 848.14 C 977.97 856.81 967.27 855.71 960.41 858.75 C 964.14 867.22 956.29 880.89 963.77 886.85 C 964.51 877.31 976.23 875.23 983.20 880.02 C 986.53 895.63 985.76 912.21 981.92 927.71 C 977.28 931.66 968.91 931.67 964.62 927.25 C 961.54 920.01 964.42 905.94 953.05 907.16 C 941.85 904.04 944.74 921.05 940.32 927.34 C 934.78 930.51 924.03 930.95 922.82 922.87 C 921.53 908.44 920.72 893.22 925.21 879.24 C 932.38 872.39 946.92 877.57 943.99 888.82 C 947.02 892.13 944.08 904.66 949.73 899.18 C 948.07 880.79 958.27 855.79 941.15 843.27 C 921.48 845.13 901.81 843.50 882.17 844.05 C 881.48 849.59 889.70 844.55 890.96 849.22 C 892.64 856.14 895.56 869.38 885.31 870.50 C 883.23 875.06 883.39 880.59 883.31 885.61 C 884.92 890.92 894.19 883.87 895.30 889.92 C 896.30 899.37 897.11 909.71 893.22 918.68 C 879.12 924.99 890.33 901.54 877.77 904.23 C 873.24 907.07 877.81 924.18 866.95 918.23 C 862.42 909.39 864.88 896.74 866.98 887.06 C 873.33 882.79 875.92 891.43 877.62 894.77 C 879.70 877.61 871.66 861.95 872.27 845.90 C 849.88 847.99 827.62 851.49 805.19 847.75 C 772.81 848.99 742.42 829.26 713.56 822.74 C 712.69 831.31 708.20 842.37 697.28 839.36 C 683.96 848.00 688.62 866.59 690.18 879.70 C 693.51 873.55 702.27 867.56 709.86 874.06 C 715.05 887.17 713.38 902.43 711.30 916.19 C 710.32 926.84 691.19 926.11 691.59 915.27 C 691.83 905.17 685.93 898.38 675.72 899.44 C 670.46 906.06 673.40 926.20 658.55 922.62 C 645.12 920.63 651.83 901.08 650.01 892.15 C 648.88 882.08 652.62 866.37 666.15 871.48 C 674.91 875.37 670.56 891.03 676.89 894.61 C 680.51 881.00 675.88 865.72 677.94 851.46 C 667.59 851.48 652.85 833.30 648.56 850.66 C 641.75 877.32 609.68 877.21 587.76 875.11 C 569.58 877.21 551.05 867.40 541.06 852.66 C 539.89 837.54 533.09 821.21 542.05 807.12 C 546.53 802.58 539.82 797.99 535.89 801.70 C 524.52 803.76 510.81 795.78 500.19 801.63 C 494.52 810.37 478.42 795.78 471.13 803.89 C 466.23 808.79 461.51 814.10 455.66 817.86 C 449.54 813.29 457.11 801.51 453.24 796.61 C 414.20 788.67 375.14 779.34 335.73 773.46 C 329.79 781.27 322.77 788.22 314.94 794.16 C 311.45 786.28 314.61 777.50 314.95 769.27 C 291.16 763.08 266.77 758.47 242.60 753.68 C 241.79 750.87 245.04 745.71 238.83 747.04 C 184.96 735.81 130.39 727.98 76.60 716.47 C 69.52 715.70 76.87 708.88 76.86 704.86 C 66.43 698.46 45.73 704.03 37.24 692.51 C 41.75 688.08 52.06 691.73 59.03 691.95 C 238.68 720.28 418.27 751.21 599.00 771.01 C 628.71 775.25 658.84 776.96 688.84 776.96 C 679.47 744.35 670.37 706.02 683.63 673.34 C 681.70 671.71 679.32 670.72 676.94 670.00 C 575.89 649.36 474.89 628.58 373.56 609.41 C 365.59 606.57 350.98 608.45 349.82 597.20 C 457.63 613.86 566.03 627.64 673.78 645.16 C 681.61 644.75 691.02 651.23 697.53 644.47 C 707.97 635.63 720.69 630.72 732.80 624.87 C 732.41 504.93 732.73 383.20 731.27 262.69 C 731.64 261.66 730.67 259.29 732.31 259.28 M 652.60 833.17 C 645.99 849.83 671.92 829.03 652.60 833.17 M 673.65 836.23 C 673.80 842.04 679.72 834.95 673.65 836.23 M 688.18 838.35 C 685.98 846.68 696.94 836.38 688.18 838.35 M 676.68 841.48 C 673.34 843.26 669.81 844.65 665.92 844.56 C 670.01 850.07 683.68 848.04 676.68 841.48 M 947.06 841.78 C 947.24 851.47 955.59 842.86 947.06 841.78 M 960.89 847.15 C 958.78 856.94 972.23 856.27 975.90 850.96 C 970.68 850.59 965.76 848.89 960.89 847.15 M 685.92 885.02 C 682.85 901.19 695.45 889.38 685.92 885.02 M 958.24 892.35 C 955.78 909.69 966.28 890.96 958.24 892.35 Z" />
<path fill="#000000" opacity="1.00" d=" M 768.27 456.27 C 768.77 456.77 768.77 456.77 768.27 456.27 Z" />
<path fill="#000000" opacity="1.00" d=" M 688.27 645.27 C 688.77 645.77 688.77 645.77 688.27 645.27 Z" />
</svg>
